<?xml version="1.0" encoding="utf-8"?>
<!-- Generator: Adobe Illustrator 16.0.0, SVG Export Plug-In . SVG Version: 6.00 Build 0)  -->
<!DOCTYPE svg PUBLIC "-//W3C//DTD SVG 1.1//EN" "http://www.w3.org/Graphics/SVG/1.1/DTD/svg11.dtd">
<svg version="1.1" id="圖層_1" xmlns="http://www.w3.org/2000/svg" xmlns:xlink="http://www.w3.org/1999/xlink" x="0px" y="0px"
	 width="388px" height="89px" viewBox="0 0 388 89" enable-background="new 0 0 388 89" xml:space="preserve">
<g>
	<defs>
		<rect id="SVGID_1_" x="-79" y="-82.118" width="550.024" height="255.118"/>
	</defs>
	<clipPath id="SVGID_2_">
		<use xlink:href="#SVGID_1_"  overflow="visible"/>
	</clipPath>
	<path clip-path="url(#SVGID_2_)" fill="#FF0000" d="M124.496,16.2c-1.397-5.227-5.514-9.343-10.741-10.74
		c-9.474-2.539-47.463-2.539-47.463-2.539s-37.989,0-47.463,2.539C13.602,6.857,9.485,10.973,8.088,16.2
		C5.55,25.674,5.55,45.441,5.55,45.441s0,19.767,2.538,29.24c1.397,5.228,5.514,9.345,10.741,10.741
		c9.474,2.539,47.463,2.539,47.463,2.539s37.989,0,47.463-2.539c5.227-1.396,9.344-5.514,10.741-10.741
		c2.539-9.473,2.539-29.24,2.539-29.24S127.035,25.674,124.496,16.2"/>
	<polygon clip-path="url(#SVGID_2_)" fill="#FFFFFF" points="54.144,63.664 85.706,45.441 54.144,27.218 	"/>
	<path clip-path="url(#SVGID_2_)" fill="#FFFFFF" d="M181.885,80.285c-2.404-1.62-4.113-4.141-5.125-7.559
		c-1.014-3.416-1.521-7.963-1.521-13.64v-7.731c0-5.734,0.578-10.339,1.738-13.813c1.157-3.475,2.967-6.009,5.429-7.602
		c2.461-1.592,5.691-2.389,9.687-2.389c3.938,0,7.095,0.811,9.47,2.433c2.375,1.621,4.111,4.156,5.213,7.601
		c1.099,3.446,1.65,8.036,1.65,13.771v7.731c0,5.677-0.536,10.238-1.606,13.684c-1.072,3.445-2.811,5.966-5.213,7.558
		c-2.404,1.593-5.663,2.389-9.774,2.389C187.604,82.717,184.288,81.906,181.885,80.285 M195.351,71.944
		c0.665-1.736,0.999-4.574,0.999-8.513V46.837c0-3.822-0.334-6.616-0.999-8.383c-0.667-1.766-1.84-2.65-3.519-2.65
		c-1.622,0-2.766,0.884-3.431,2.65c-0.667,1.767-0.999,4.561-0.999,8.383v16.595c0,3.938,0.317,6.776,0.955,8.513
		c0.637,1.738,1.795,2.605,3.475,2.605C193.511,74.55,194.684,73.683,195.351,71.944"/>
	<path clip-path="url(#SVGID_2_)" fill="#FFFFFF" d="M366.406,59.214v2.692c0,3.418,0.1,5.981,0.304,7.689
		c0.202,1.709,0.621,2.954,1.26,3.736c0.637,0.78,1.62,1.173,2.954,1.173c1.794,0,3.025-0.695,3.691-2.086
		c0.664-1.391,1.027-3.706,1.086-6.95l10.339,0.608c0.058,0.465,0.087,1.102,0.087,1.91c0,4.925-1.348,8.603-4.04,11.035
		c-2.692,2.432-6.502,3.648-11.424,3.648c-5.907,0-10.049-1.853-12.424-5.561c-2.376-3.706-3.563-9.439-3.563-17.201v-9.297
		c0-7.993,1.23-13.827,3.693-17.505c2.461-3.677,6.675-5.516,12.641-5.516c4.111,0,7.269,0.753,9.469,2.258
		c2.2,1.507,3.75,3.853,4.648,7.037c0.897,3.186,1.347,7.589,1.347,13.206v9.122H366.406z M367.926,36.8
		c-0.607,0.753-1.014,1.984-1.216,3.692c-0.204,1.709-0.304,4.3-0.304,7.775v3.823h8.773v-3.823c0-3.416-0.116-6.008-0.347-7.775
		c-0.232-1.766-0.651-3.011-1.26-3.735c-0.608-0.725-1.55-1.087-2.823-1.087C369.475,35.67,368.534,36.048,367.926,36.8"/>
	<path clip-path="url(#SVGID_2_)" fill="#FFFFFF" d="M152.691,58.217l-13.64-49.26h11.902l4.778,22.328
		c1.217,5.503,2.114,10.194,2.693,14.074h0.348c0.405-2.78,1.303-7.442,2.693-13.987l4.952-22.415h11.902l-13.813,49.26v23.632
		h-11.815V58.217z"/>
	<path clip-path="url(#SVGID_2_)" fill="#FFFFFF" d="M247.136,28.593v53.255h-9.383l-1.043-6.516h-0.261
		c-2.549,4.923-6.371,7.384-11.468,7.384c-3.533,0-6.139-1.157-7.818-3.475c-1.681-2.316-2.52-5.937-2.52-10.859v-39.79h11.989
		v39.094c0,2.376,0.261,4.069,0.782,5.082c0.521,1.015,1.389,1.521,2.605,1.521c1.043,0,2.042-0.317,2.997-0.956
		c0.956-0.637,1.665-1.447,2.129-2.432V28.593H247.136z"/>
	<path clip-path="url(#SVGID_2_)" fill="#FFFFFF" d="M308.632,28.593v53.255h-9.383l-1.043-6.516h-0.261
		c-2.55,4.923-6.371,7.384-11.468,7.384c-3.533,0-6.139-1.157-7.818-3.475c-1.681-2.316-2.52-5.937-2.52-10.859v-39.79h11.989
		v39.094c0,2.376,0.26,4.069,0.781,5.082c0.521,1.015,1.39,1.521,2.606,1.521c1.043,0,2.042-0.317,2.997-0.956
		c0.956-0.637,1.664-1.447,2.129-2.432V28.593H308.632z"/>
	<polygon clip-path="url(#SVGID_2_)" fill="#FFFFFF" points="279.714,18.602 267.812,18.602 267.812,81.849 256.084,81.849 
		256.084,18.602 244.182,18.602 244.182,8.958 279.714,8.958 	"/>
	<path clip-path="url(#SVGID_2_)" fill="#FFFFFF" d="M348.311,37.106c-0.725-3.358-1.897-5.791-3.519-7.298
		c-1.622-1.504-3.853-2.258-6.689-2.258c-2.201,0-4.257,0.623-6.168,1.868s-3.389,2.882-4.431,4.909h-0.088l0.001-28.062h-11.555
		v75.583h9.903l1.217-5.039h0.261c0.926,1.795,2.315,3.215,4.17,4.258c1.853,1.042,3.909,1.563,6.169,1.563
		c4.053,0,7.036-1.868,8.947-5.604c1.911-3.736,2.867-9.57,2.867-17.507v-8.426C349.396,45.129,349.034,40.466,348.311,37.106
		 M337.321,58.829c0,3.881-0.16,6.922-0.479,9.122c-0.317,2.202-0.854,3.766-1.606,4.69c-0.753,0.928-1.769,1.391-3.04,1.391
		c-0.985,0-1.897-0.23-2.736-0.695c-0.841-0.463-1.521-1.157-2.042-2.085V41.019c0.404-1.447,1.1-2.635,2.085-3.562
		c0.984-0.925,2.055-1.39,3.214-1.39c1.217,0,2.157,0.478,2.824,1.433c0.665,0.956,1.129,2.563,1.39,4.823
		c0.261,2.258,0.392,5.472,0.392,9.642V58.829z"/>
</g>
</svg>
